<svg data-v-423bf9ae="" xmlns="http://www.w3.org/2000/svg" viewBox="0 0 265.3132082381338 163" class="iconAbove"><!----><!----><!----><g data-v-423bf9ae="" id="8a4d1872-20e6-4baf-9dd3-7fd0117248db" fill="#ffffff" transform="matrix(4.528301886792453,0,0,4.528301886792453,-0.9056585956856793,89.00755113475728)"><path d="M10.58 3.30L8.11 3.30L5.43 10.07L2.70 3.30L0.20 3.30L0.20 3.84L1.30 3.82L1.30 12.08L1.30 12.08Q1.30 12.64 1.04 12.64L1.04 12.64L0.21 12.64L0.21 13.17L3.12 13.17L3.12 12.64L2.18 12.64L2.18 12.64Q1.88 12.64 1.88 12.08L1.88 12.08L1.88 4.40L4.89 11.83L5.32 11.83L8.29 4.28L8.27 12.64L7.13 12.64L7.13 13.17L10.58 13.17L10.58 12.64L9.45 12.66L9.45 3.84L10.58 3.84L10.58 3.30ZM16.28 11.65L16.28 11.33L15.74 11.33L15.74 11.56L15.74 11.56Q15.54 12.75 14.39 12.75L14.39 12.75L13.50 12.75L13.50 12.75Q12.54 12.75 12.54 11.76L12.54 11.76L12.54 10.02L16.09 10.02L16.09 10.02Q16.17 10.02 16.20 9.65L16.20 9.65L16.20 9.65Q16.21 9.45 16.23 9.23L16.23 9.23L16.23 9.23Q16.24 9.00 16.23 8.72L16.23 8.72L16.23 8.72Q16.21 8.34 16.06 8.03L16.06 8.03L16.06 8.03Q15.90 7.71 15.64 7.48L15.64 7.48L15.64 7.48Q15.39 7.24 15.03 7.10L15.03 7.10L15.03 7.10Q14.67 6.97 14.25 6.97L14.25 6.97L13.24 6.97L13.24 6.97Q12.85 6.97 12.52 7.14L12.52 7.14L12.52 7.14Q12.18 7.31 11.94 7.60L11.94 7.60L11.94 7.60Q11.70 7.90 11.56 8.30L11.56 8.30L11.56 8.30Q11.42 8.71 11.42 9.17L11.42 9.17L11.42 11.14L11.42 11.14Q11.42 12.12 11.92 12.69L11.92 12.69L11.92 12.69Q12.42 13.26 13.31 13.26L13.31 13.26L14.49 13.26L14.49 13.26Q14.83 13.26 15.12 13.18L15.12 13.18L15.12 13.18Q15.41 13.10 15.65 12.92L15.65 12.92L15.65 12.92Q15.89 12.74 16.05 12.42L16.05 12.42L16.05 12.42Q16.21 12.11 16.28 11.65L16.28 11.65ZM15.08 9.52L12.54 9.52L12.54 8.55L12.54 8.55Q12.54 7.48 13.47 7.48L13.47 7.48L14.20 7.48L14.20 7.48Q14.67 7.48 14.90 7.71L14.90 7.71L14.90 7.71Q15.12 7.95 15.11 8.50L15.11 8.50L15.08 9.52ZM18.97 12.14L18.97 12.14L18.97 7.63L20.40 7.63L20.40 7.13L18.97 7.13L18.97 5.08L18.42 5.08L18.42 5.08Q18.35 5.84 18.12 6.35L18.12 6.35L18.12 6.35Q17.89 6.86 17.39 7.13L17.39 7.13L16.91 7.13L16.91 7.63L17.92 7.63L17.92 12.15L17.92 12.15Q17.92 13.26 19.24 13.26L19.24 13.26L19.24 13.26Q19.82 13.26 20.10 13.09L20.10 13.09L20.10 13.09Q20.37 12.92 20.51 12.73L20.51 12.73L20.51 12.43L20.41 12.31L20.41 12.31Q20.38 12.43 20.15 12.59L20.15 12.59L20.15 12.59Q19.92 12.75 19.60 12.75L19.60 12.75L19.60 12.75Q19.25 12.75 19.11 12.62L19.11 12.62L19.11 12.62Q18.97 12.49 18.97 12.14ZM25.40 10.23L25.40 12.15L25.40 12.15Q25.16 12.38 24.73 12.53L24.73 12.53L24.73 12.53Q24.30 12.68 23.59 12.68L23.59 12.68L23.59 12.68Q23.10 12.68 22.95 12.47L22.95 12.47L22.95 12.47Q22.79 12.26 22.79 11.79L22.79 11.79L22.79 11.28L22.79 11.28Q22.79 10.74 23.06 10.50L23.06 10.50L23.06 10.50Q23.32 10.26 24.04 10.25L24.04 10.25L25.40 10.23ZM25.41 12.82L25.41 12.82L25.41 12.82Q25.45 12.98 25.61 13.12L25.61 13.12L25.61 13.12Q25.76 13.26 26.03 13.26L26.03 13.26L26.03 13.26Q26.47 13.26 26.84 13.15L26.84 13.15L26.84 13.15Q27.22 13.05 27.51 12.88L27.51 12.88L27.44 12.42L27.44 12.42Q27.31 12.49 27.08 12.60L27.08 12.60L27.08 12.60Q26.84 12.71 26.66 12.71L26.66 12.71L26.66 12.71Q26.52 12.71 26.48 12.59L26.48 12.59L26.48 12.59Q26.45 12.47 26.45 12.19L26.45 12.19L26.45 8.39L26.45 8.39Q26.45 7.67 25.97 7.32L25.97 7.32L25.97 7.32Q25.49 6.97 24.61 6.97L24.61 6.97L23.66 6.97L23.66 6.97Q22.86 6.97 22.45 7.29L22.45 7.29L22.45 7.29Q22.04 7.60 22.04 8.19L22.04 8.19L22.04 8.64L22.04 8.64Q22.13 8.99 22.57 9.02L22.57 9.02L22.57 9.02Q22.95 9.02 23.10 8.72L23.10 8.72L23.10 8.72Q23.10 8.47 22.99 8.33L22.99 8.33L22.99 8.33Q22.88 8.19 22.86 8.04L22.86 8.04L22.86 8.04Q22.86 7.74 23.11 7.61L23.11 7.61L23.11 7.61Q23.37 7.48 23.80 7.48L23.80 7.48L24.50 7.48L24.50 7.48Q24.95 7.48 25.17 7.61L25.17 7.61L25.17 7.61Q25.40 7.74 25.40 8.18L25.40 8.18L25.40 9.77L23.91 9.79L23.91 9.79Q22.82 9.80 22.26 10.15L22.26 10.15L22.26 10.15Q21.70 10.50 21.70 11.17L21.70 11.17L21.70 12.04L21.70 12.04Q21.70 12.63 22.02 12.94L22.02 12.94L22.02 12.94Q22.33 13.26 23.00 13.26L23.00 13.26L23.00 13.26Q23.63 13.26 24.25 13.17L24.25 13.17L24.25 13.17Q24.88 13.09 25.41 12.82ZM29.75 15.83L29.75 12.67L29.75 12.67Q30.20 12.99 30.72 13.13L30.72 13.13L30.72 13.13Q31.25 13.26 31.88 13.26L31.88 13.26L31.88 13.26Q32.80 13.26 33.35 12.68L33.35 12.68L33.35 12.68Q33.89 12.11 33.89 11.14L33.89 11.14L33.89 9.09L33.89 9.09Q33.89 8.62 33.75 8.24L33.75 8.24L33.75 8.24Q33.61 7.85 33.35 7.57L33.35 7.57L33.35 7.57Q33.10 7.28 32.74 7.13L32.74 7.13L32.74 7.13Q32.38 6.97 31.96 6.97L31.96 6.97L31.96 6.97Q31.37 6.97 30.81 7.11L30.81 7.11L30.81 7.11Q30.24 7.25 29.75 7.69L29.75 7.69L29.75 6.94L29.75 6.94Q29.60 7.04 29.41 7.08L29.41 7.08L29.41 7.08Q29.23 7.13 28.95 7.13L28.95 7.13L27.79 7.13L27.79 7.63L28.69 7.63L28.69 15.82L27.79 15.82L27.79 16.34L30.69 16.34L30.69 15.82L29.75 15.83ZM29.75 11.84L29.75 11.84L29.75 8.60L29.75 8.60Q29.95 8.18 30.43 7.83L30.43 7.83L30.43 7.83Q30.91 7.48 31.74 7.48L31.74 7.48L31.74 7.48Q32.34 7.48 32.56 7.82L32.56 7.82L32.56 7.82Q32.77 8.16 32.77 8.92L32.77 8.92L32.77 11.31L32.77 11.31Q32.77 12.08 32.56 12.42L32.56 12.42L32.56 12.42Q32.34 12.75 31.71 12.75L31.71 12.75L31.71 12.75Q30.91 12.75 30.41 12.48L30.41 12.48L30.41 12.48Q29.90 12.21 29.75 11.84ZM40.25 11.65L40.25 11.33L39.70 11.33L39.70 11.56L39.70 11.56Q39.51 12.75 38.36 12.75L38.36 12.75L37.46 12.75L37.46 12.75Q36.51 12.75 36.51 11.76L36.51 11.76L36.51 10.02L40.05 10.02L40.05 10.02Q40.14 10.02 40.17 9.65L40.17 9.65L40.17 9.65Q40.18 9.45 40.19 9.23L40.19 9.23L40.19 9.23Q40.21 9.00 40.19 8.72L40.19 8.72L40.19 8.72Q40.18 8.34 40.03 8.03L40.03 8.03L40.03 8.03Q39.87 7.71 39.61 7.48L39.61 7.48L39.61 7.48Q39.35 7.24 39.00 7.10L39.00 7.10L39.00 7.10Q38.64 6.97 38.22 6.97L38.22 6.97L37.21 6.97L37.21 6.97Q36.82 6.97 36.48 7.14L36.48 7.14L36.48 7.14Q36.15 7.31 35.91 7.60L35.91 7.60L35.91 7.60Q35.67 7.90 35.53 8.30L35.53 8.30L35.53 8.30Q35.39 8.71 35.39 9.17L35.39 9.17L35.39 11.14L35.39 11.14Q35.39 12.12 35.89 12.69L35.89 12.69L35.89 12.69Q36.39 13.26 37.28 13.26L37.28 13.26L38.46 13.26L38.46 13.26Q38.79 13.26 39.09 13.18L39.09 13.18L39.09 13.18Q39.38 13.10 39.62 12.92L39.62 12.92L39.62 12.92Q39.86 12.74 40.02 12.42L40.02 12.42L40.02 12.42Q40.18 12.11 40.25 11.65L40.25 11.65ZM39.05 9.52L36.51 9.52L36.51 8.55L36.51 8.55Q36.51 7.48 37.44 7.48L37.44 7.48L38.16 7.48L38.16 7.48Q38.64 7.48 38.86 7.71L38.86 7.71L38.86 7.71Q39.09 7.95 39.07 8.50L39.07 8.50L39.05 9.52ZM45.65 12.64L45.65 12.64L45.65 13.17L47.61 13.17L47.61 12.66L46.72 12.66L46.72 3.09L46.72 3.09Q46.56 3.19 46.38 3.23L46.38 3.23L46.38 3.23Q46.20 3.28 45.92 3.28L45.92 3.28L44.69 3.28L44.69 3.78L45.65 3.78L45.65 7.71L45.65 7.71Q45.23 7.32 44.66 7.15L44.66 7.15L44.66 7.15Q44.09 6.97 43.46 6.97L43.46 6.97L43.46 6.97Q43.04 6.97 42.68 7.13L42.68 7.13L42.68 7.13Q42.32 7.29 42.06 7.59L42.06 7.59L42.06 7.59Q41.80 7.88 41.66 8.29L41.66 8.29L41.66 8.29Q41.52 8.69 41.52 9.17L41.52 9.17L41.52 11.12L41.52 11.12Q41.52 12.12 42.03 12.69L42.03 12.69L42.03 12.69Q42.55 13.26 43.47 13.26L43.47 13.26L43.47 13.26Q44.80 13.26 45.65 12.64ZM45.65 8.62L45.65 11.79L45.65 11.79Q45.60 12.19 45.05 12.47L45.05 12.47L45.05 12.47Q44.49 12.75 43.65 12.75L43.65 12.75L43.65 12.75Q43.04 12.75 42.84 12.40L42.84 12.40L42.84 12.40Q42.64 12.05 42.64 11.23L42.64 11.23L42.64 9.03L42.64 9.03Q42.64 8.23 42.84 7.85L42.84 7.85L42.84 7.85Q43.04 7.48 43.61 7.48L43.61 7.48L43.61 7.48Q44.46 7.48 44.99 7.80L44.99 7.80L44.99 7.80Q45.51 8.12 45.65 8.62L45.65 8.62ZM49.62 4.97L49.62 4.97L49.62 4.97Q49.62 5.25 49.81 5.45L49.81 5.45L49.81 5.45Q50.01 5.64 50.30 5.64L50.30 5.64L50.30 5.64Q50.60 5.64 50.79 5.45L50.79 5.45L50.79 5.45Q50.99 5.25 50.99 4.96L50.99 4.96L50.99 4.96Q50.99 4.68 50.79 4.48L50.79 4.48L50.79 4.48Q50.60 4.28 50.30 4.28L50.30 4.28L50.30 4.28Q50.01 4.28 49.81 4.48L49.81 4.48L49.81 4.48Q49.62 4.68 49.62 4.97ZM51.83 12.66L50.88 12.67L50.88 6.94L50.88 6.94Q50.71 7.04 50.53 7.08L50.53 7.08L50.53 7.08Q50.36 7.13 50.06 7.13L50.06 7.13L48.82 7.13L48.82 7.63L49.81 7.63L49.84 12.66L48.82 12.66L48.82 13.17L51.83 13.17L51.83 12.66ZM56.67 10.23L56.67 12.15L56.67 12.15Q56.43 12.38 56.01 12.53L56.01 12.53L56.01 12.53Q55.58 12.68 54.87 12.68L54.87 12.68L54.87 12.68Q54.38 12.68 54.22 12.47L54.22 12.47L54.22 12.47Q54.07 12.26 54.07 11.79L54.07 11.79L54.07 11.28L54.07 11.28Q54.07 10.74 54.33 10.50L54.33 10.50L54.33 10.50Q54.60 10.26 55.31 10.25L55.31 10.25L56.67 10.23ZM56.69 12.82L56.69 12.82L56.69 12.82Q56.73 12.98 56.88 13.12L56.88 13.12L56.88 13.12Q57.04 13.26 57.30 13.26L57.30 13.26L57.30 13.26Q57.75 13.26 58.12 13.15L58.12 13.15L58.12 13.15Q58.49 13.05 58.79 12.88L58.79 12.88L58.72 12.42L58.72 12.42Q58.59 12.49 58.35 12.60L58.35 12.60L58.35 12.60Q58.11 12.71 57.93 12.71L57.93 12.71L57.93 12.71Q57.79 12.71 57.76 12.59L57.76 12.59L57.76 12.59Q57.72 12.47 57.72 12.19L57.72 12.19L57.72 8.39L57.72 8.39Q57.72 7.67 57.25 7.32L57.25 7.32L57.25 7.32Q56.77 6.97 55.89 6.97L55.89 6.97L54.94 6.97L54.94 6.97Q54.14 6.97 53.73 7.29L53.73 7.29L53.73 7.29Q53.31 7.60 53.31 8.19L53.31 8.19L53.31 8.64L53.31 8.64Q53.41 8.99 53.84 9.02L53.84 9.02L53.84 9.02Q54.22 9.02 54.38 8.72L54.38 8.72L54.38 8.72Q54.38 8.47 54.26 8.33L54.26 8.33L54.26 8.33Q54.15 8.19 54.14 8.04L54.14 8.04L54.14 8.04Q54.14 7.74 54.39 7.61L54.39 7.61L54.39 7.61Q54.64 7.48 55.08 7.48L55.08 7.48L55.78 7.48L55.78 7.48Q56.22 7.48 56.45 7.61L56.45 7.61L56.45 7.61Q56.67 7.74 56.67 8.18L56.67 8.18L56.67 9.77L55.19 9.79L55.19 9.79Q54.10 9.80 53.54 10.15L53.54 10.15L53.54 10.15Q52.98 10.50 52.98 11.17L52.98 11.17L52.98 12.04L52.98 12.04Q52.98 12.63 53.29 12.94L53.29 12.94L53.29 12.94Q53.61 13.26 54.28 13.26L54.28 13.26L54.28 13.26Q54.91 13.26 55.53 13.17L55.53 13.17L55.53 13.17Q56.15 13.09 56.69 12.82Z"></path></g><!----><g data-v-423bf9ae="" id="c92d38ac-5a3d-4d4c-bd5e-e1300b5e2c77" transform="matrix(1.9266584802801152,0,0,1.9266584802801152,39.14571990797329,0)" stroke="none" fill="#0EA7FF"><path d="M35.03 35.148c-7.732-3.146-11.661-3.487-15.821-3.848-4.101-.354-8.347-.729-16.382-3.95-.597.901-1.09 2.651-1.487 4.772 8.261 2.153 12.443 1.988 16.477 1.821 4.081-.168 8.298-.341 16.548 1.847 2.792.741 4.966 1.47 6.695 2.176-1.536-.849-3.491-1.785-6.03-2.818zM34.048 37.982c-8.068-2.141-12.008-1.98-16.182-1.808-4.11.17-8.367.338-16.739-1.835a85.795 85.795 0 0 0-.661 5.174c8.167.969 12.216.268 16.122-.416 4.021-.703 8.179-1.43 16.647-.348 3.312.424 5.807.94 7.732 1.5-1.709-.719-3.944-1.478-6.919-2.267zM16.801 41.31c-3.991.697-8.125 1.412-16.451.43-.17 1.895-.287 3.646-.35 4.945 8.365-.059 12.312-1.281 16.133-2.465 3.901-1.208 7.934-2.457 16.469-2.457 2.886 0 5.174.146 7.025.387-1.702-.43-3.83-.831-6.547-1.178-8.28-1.06-12.166-.381-16.279.338zM79.611 33.969c4.043.165 8.232.333 16.533-1.835-.41-2.307-.904-4.096-1.479-4.783-8.078 3.246-12.334 3.619-16.447 3.975-4.16.361-8.09.7-15.822 3.849-2.539 1.034-4.496 1.97-6.031 2.821 1.729-.707 3.904-1.438 6.699-2.178 8.248-2.19 12.467-2.016 16.547-1.849z"></path><path d="M94.041 25.278L85.287 0c-6.336 2.515-9.715 2.807-12.984 3.09-3.342.289-6.498.562-12.707 3.089-8.611 3.506-9.078 5.696-9.328 6.873-.121.565-.264 1.197-1.038 1.609v28.725c.004-.006.012-.012.017-.02.036-.052.068-.115.1-.184.065-.158.114-.348.174-.625.39-1.831 1.042-4.896 12.414-9.523 7.904-3.22 12.111-3.583 16.18-3.936 3.992-.345 8.119-.701 15.926-3.82z"></path><path d="M80.837 39.123c3.91.684 7.961 1.383 16.141.414a92.14 92.14 0 0 0-.633-5.184c-8.398 2.184-12.664 2.017-16.785 1.846-4.174-.171-8.113-.332-16.182 1.809-2.975.79-5.209 1.549-6.922 2.27 1.926-.56 4.422-1.076 7.734-1.5 8.466-1.085 12.628-.358 16.647.345zM81.294 44.247c3.82 1.183 7.768 2.406 16.133 2.466-.072-1.51-.188-3.213-.336-4.948-8.334.985-12.473.269-16.465-.429-4.113-.719-7.998-1.397-16.279-.338-2.715.348-4.844.75-6.545 1.178 1.85-.238 4.137-.387 7.023-.387 8.536 0 12.569 1.25 16.469 2.458zM47.907 42.533c.033.154.061.279.091.394V14.662c-.774-.412-.917-1.044-1.037-1.609-.251-1.177-.717-3.367-9.329-6.873-6.209-2.527-9.365-2.8-12.706-3.089-3.27-.283-6.647-.576-12.981-3.089L3.382 25.25c7.81 3.121 11.938 3.479 15.933 3.824 4.068.353 8.274.717 16.179 3.934 11.372 4.628 12.024 7.694 12.413 9.525z"></path></g><!----></svg>