<svg data-v-423bf9ae="" xmlns="http://www.w3.org/2000/svg" viewBox="0 0 418 90" class="iconLeft"><!----><!----><!----><g data-v-423bf9ae="" id="18ff2b81-f379-4ad1-a480-d00936857711" fill="black" transform="matrix(4.408522947042699,0,0,4.408522947042699,118.8545139206312,2.171198084137764)"><path d="M0.48 13.30L3.79 13.30L3.79 12.89C2.88 12.82 2.55 12.78 2.46 12.19C2.39 11.73 2.37 11.20 2.37 10.46L2.37 4.90L2.39 4.90L6.01 13.13L6.38 13.13L10.04 4.90L10.08 4.90L10.08 12.00C10.08 12.78 10.05 12.81 8.82 12.89L8.82 13.30L12.73 13.30L12.73 12.89C11.51 12.81 11.47 12.78 11.47 12.00L11.47 4.91C11.47 4.13 11.51 4.10 12.73 4.02L12.73 3.61L9.91 3.61C9.44 4.86 8.86 6.09 8.30 7.32L6.62 11.07L6.59 11.07L4.94 7.34C4.40 6.09 3.81 4.86 3.30 3.61L0.46 3.61L0.46 4.02C1.69 4.10 1.72 4.13 1.72 4.91L1.72 10.46C1.72 11.20 1.69 11.73 1.62 12.19C1.54 12.78 1.20 12.84 0.48 12.89ZM13.48 9.93C13.48 12.14 14.43 13.47 16.72 13.47C18.27 13.47 19.07 12.60 19.45 11.49L19.03 11.27C18.63 12.08 18.10 12.75 17.00 12.75C15.26 12.75 14.91 11.07 14.94 9.62L18.97 9.62C19.26 9.62 19.53 9.55 19.53 9.09C19.53 8.26 19.26 6.27 16.70 6.27C14.52 6.27 13.48 7.83 13.48 9.93ZM14.95 9.09C14.95 8.51 15.16 6.76 16.62 6.76C17.92 6.76 18.07 8.09 18.07 8.64C18.07 8.90 17.99 9.09 17.60 9.09ZM20.43 7.00L21.43 7.00L21.43 11.87C21.43 13.30 22.50 13.47 22.99 13.47C23.70 13.47 24.37 13.10 24.78 12.85L24.67 12.56C24.33 12.70 24.02 12.74 23.67 12.74C23.20 12.74 22.75 12.40 22.75 11.34L22.75 7.00L24.56 7.00L24.56 6.44L22.75 6.44L22.75 4.68L22.34 4.68L21.49 6.44L20.43 6.44ZM25.49 11.48C25.49 12.53 26.19 13.47 27.51 13.47C28.32 13.47 29.15 12.92 29.60 12.63C29.79 13.15 30.02 13.47 30.51 13.47C31.02 13.47 31.63 13.31 32.16 13.05L32.07 12.71C31.88 12.75 31.57 12.78 31.36 12.73C31.11 12.67 30.87 12.40 30.87 11.52L30.87 8.13C30.87 7.32 30.69 6.27 28.57 6.27C26.99 6.27 25.75 7.10 25.75 7.87C25.75 8.32 26.26 8.53 26.53 8.53C26.82 8.53 26.91 8.37 26.98 8.13C27.29 7.10 27.86 6.76 28.42 6.76C28.97 6.76 29.61 7.04 29.61 8.16L29.61 8.75C29.26 9.11 27.90 9.46 26.80 9.81C25.79 10.12 25.49 10.82 25.49 11.48ZM26.91 11.28C26.91 10.63 27.22 10.29 28 10.00C28.56 9.79 29.30 9.52 29.61 9.32L29.61 11.30C29.61 12.43 28.74 12.73 28.20 12.73C27.33 12.73 26.91 12.11 26.91 11.28ZM32.48 16.11L32.48 16.52L36.11 16.52L36.11 16.11C34.93 16.04 34.85 16.02 34.85 15.30L34.85 13.15C35.14 13.31 35.80 13.47 36.44 13.47C38.33 13.47 39.96 12.60 39.96 9.72C39.96 8.72 39.77 6.27 37.23 6.27C36.20 6.27 35.39 6.96 34.85 7.31L34.66 6.27L32.55 6.62L32.55 6.97L33.08 7.04C33.45 7.10 33.53 7.17 33.53 7.67L33.53 15.30C33.53 16.02 33.46 16.04 32.48 16.11ZM34.85 11.10L34.85 8.81C34.85 8.46 34.90 8.26 35.03 8.01C35.35 7.36 35.95 7.03 36.69 7.03C37.25 7.03 38.50 7.39 38.50 9.80C38.50 11.86 37.86 12.98 36.46 12.98C35.73 12.98 35.17 12.60 34.94 11.96C34.86 11.70 34.85 11.42 34.85 11.10ZM41.33 9.93C41.33 12.14 42.28 13.47 44.56 13.47C46.12 13.47 46.91 12.60 47.29 11.49L46.87 11.27C46.48 12.08 45.95 12.75 44.84 12.75C43.11 12.75 42.76 11.07 42.78 9.62L46.82 9.62C47.11 9.62 47.38 9.55 47.38 9.09C47.38 8.26 47.11 6.27 44.55 6.27C42.36 6.27 41.33 7.83 41.33 9.93ZM42.80 9.09C42.80 8.51 43.01 6.76 44.46 6.76C45.77 6.76 45.92 8.09 45.92 8.64C45.92 8.90 45.84 9.09 45.44 9.09ZM48.52 10.01C48.52 12.08 49.60 13.47 51.45 13.47C52.21 13.47 52.86 13.13 53.62 12.52L53.62 13.20L53.73 13.30L56 13.30L56 12.89C55.01 12.82 54.95 12.80 54.95 12.08L54.95 3.00L54.85 2.91L52.65 3.26L52.65 3.61L53.19 3.67C53.55 3.71 53.63 3.78 53.63 4.31L53.63 6.61C53.24 6.40 52.72 6.27 52.08 6.27C50.93 6.27 50.08 6.64 49.49 7.24C48.89 7.87 48.52 8.79 48.52 10.01ZM49.98 9.84C49.98 8.02 50.64 6.76 52.07 6.76C52.72 6.76 53.26 7.07 53.51 7.64C53.62 7.88 53.63 8.08 53.63 8.46L53.63 10.92C53.63 11.23 53.62 11.47 53.54 11.70C53.26 12.43 52.64 12.71 51.91 12.71C50.62 12.71 49.98 11.45 49.98 9.84ZM57.50 4.14C57.50 4.65 57.85 5.00 58.35 5.00C58.86 5.00 59.21 4.65 59.21 4.14C59.21 3.64 58.86 3.29 58.35 3.29C57.85 3.29 57.50 3.64 57.50 4.14ZM56.66 13.30L60.07 13.30L60.07 12.89C59.08 12.82 59.02 12.80 59.02 12.08L59.02 6.36L58.93 6.27L56.73 6.62L56.73 6.97L57.26 7.04C57.62 7.10 57.71 7.17 57.71 7.67L57.71 12.08C57.71 12.80 57.67 12.82 56.66 12.89ZM60.97 11.48C60.97 12.53 61.67 13.47 62.99 13.47C63.80 13.47 64.62 12.92 65.07 12.63C65.27 13.15 65.49 13.47 65.98 13.47C66.50 13.47 67.10 13.31 67.63 13.05L67.55 12.71C67.35 12.75 67.05 12.78 66.84 12.73C66.58 12.67 66.35 12.40 66.35 11.52L66.35 8.13C66.35 7.32 66.16 6.27 64.05 6.27C62.47 6.27 61.22 7.10 61.22 7.87C61.22 8.32 61.74 8.53 62.01 8.53C62.30 8.53 62.38 8.37 62.45 8.13C62.76 7.10 63.34 6.76 63.90 6.76C64.44 6.76 65.09 7.04 65.09 8.16L65.09 8.75C64.74 9.11 63.38 9.46 62.27 9.81C61.26 10.12 60.97 10.82 60.97 11.48ZM62.38 11.28C62.38 10.63 62.69 10.29 63.48 10.00C64.04 9.79 64.78 9.52 65.09 9.32L65.09 11.30C65.09 12.43 64.22 12.73 63.67 12.73C62.80 12.73 62.38 12.11 62.38 11.28Z"></path></g><!----><g data-v-423bf9ae="" id="20e20e28-23ab-4ca6-8607-fc15aff3a304" transform="matrix(1.198242446102869,0,0,1.198242446102869,-9.10387403867363,-15.578143034254857)" stroke="none" fill="black"><path d="M49.569 22.967c-9.975-5.691-20.677-9.125-31.045-9.962v58.351c10.367.814 21.05 4.154 31.045 9.699V22.967z"></path><path d="M49.229 84.073c.814.278 1.671.29 2.485.012 11.657-5.043 23.865-7.313 35.798-6.79V19.524a67.09 67.09 0 0 0-3.24-.055v53.594l-.852.056c-10.672.697-21.732 4.177-32.021 10.048a2.826 2.826 0 0 1-1.83 0c-10.29-5.871-21.349-9.351-32.021-10.048l-.854-.056V19.469a65.788 65.788 0 0 0-3.239.055v57.771c11.932-.524 24.114 1.735 35.774 6.778z"></path><path d="M92.579 26.009c-1.07-.149-2.157-.228-3.237-.335v53.55l-.968-.056c-12.195-.699-25.06 1.777-36.975 7.065l-.916.381-.915-.381c-11.917-5.288-24.781-7.765-36.976-7.065l-.967.056v-53.55c-1.081.108-2.168.187-3.238.335v58.707a4.876 4.876 0 0 1 1.044.748c12.951-1.75 26.393-1.536 39.18 2.651a19.022 19.022 0 0 1 1.873-.095c.661 0 1.285.037 1.872.095 12.785-4.188 26.229-4.401 39.179-2.651 0 0 .474-.462 1.044-.748V26.009z"></path><path d="M65.283 16.667v20.625l-3.98-4.738-4.195 4.738V19.994a83.542 83.542 0 0 0-5.708 2.974v58.087c9.993-5.545 20.679-8.885 31.045-9.699V13.005c-5.679.459-11.458 1.701-17.162 3.662z"></path></g><!----></svg>