<svg data-v-423bf9ae="" xmlns="http://www.w3.org/2000/svg" viewBox="0 0 288.4444512261285 60" class="font"><!----><!----><!----><g data-v-423bf9ae="" id="41f363cc-2a48-416d-8680-839f972ee300" fill="black" transform="matrix(4.444444444444445,0,0,4.444444444444445,-3.1111084421475823,-16.222222169240318)"><path d="M0.70 14.35L3.39 14.35L3.39 14.10L2.20 14.10L2.20 4.90L2.24 4.90L3.58 7.14L5.96 11.05L8.34 7.13L9.69 4.89L9.73 4.89L9.73 14.10L8.54 14.10L8.54 14.35L11.23 14.35L11.23 14.10L10.04 14.10L10.04 4.83L11.23 4.83L11.23 4.58L9.56 4.58L5.99 10.47L5.95 10.47L2.37 4.58L0.70 4.58L0.70 4.83L1.89 4.83L1.89 14.10L0.70 14.10ZM15.76 14.52C17.16 14.52 17.98 13.64 18.37 12.89L18.17 12.78C17.75 13.54 17.00 14.27 15.76 14.27C14.18 14.27 13.09 13.20 13.09 11.07L13.09 10.50L18.52 10.50L18.52 10.37C18.52 8.46 17.46 7.10 15.79 7.10C13.99 7.10 12.77 8.41 12.77 10.81C12.77 13.36 14.01 14.52 15.76 14.52ZM13.09 10.28C13.13 8.51 14.21 7.35 15.79 7.35C17.29 7.35 18.19 8.58 18.20 10.28ZM21.67 14.38C22.06 14.38 22.99 14.35 23.41 14.32L23.41 14.10L21.41 14.10L21.41 7.52L23.41 7.52L23.41 7.27L21.41 7.27L21.41 5.25L21.17 5.25L21.11 6.69C21.10 7.13 20.92 7.27 20.43 7.27L20.10 7.27L20.10 7.52L21.11 7.52L21.11 13.94C21.11 14.27 21.24 14.38 21.67 14.38ZM26.92 14.52C28.31 14.52 28.98 13.75 29.22 13.09L29.26 13.09L29.26 13.86C29.26 14.32 29.41 14.45 29.85 14.45C30.09 14.45 30.51 14.39 30.67 14.32L30.67 14.15L29.54 14.15L29.54 9.27C29.54 7.85 28.62 7.10 27.19 7.10C25.93 7.10 24.95 7.64 24.95 8.19C24.95 8.41 25.09 8.55 25.31 8.55C25.54 8.55 25.68 8.41 25.68 8.19C25.68 8.01 25.55 7.87 25.37 7.80L25.37 7.77C25.66 7.53 26.22 7.35 27.19 7.35C28.50 7.35 29.25 8.01 29.25 9.31L29.25 10.60L27.69 10.60C25.52 10.60 24.67 11.27 24.67 12.63C24.67 13.76 25.51 14.52 26.92 14.52ZM26.92 14.27C25.68 14.27 24.99 13.62 24.99 12.78L24.99 12.45C24.99 11.41 25.68 10.82 27.78 10.82L29.25 10.82L29.25 12.33C29.25 13.40 28.25 14.27 26.92 14.27ZM31.71 17.15L34.66 17.15L34.66 16.90L33.19 16.90L33.19 13.16L33.24 13.16C33.53 13.86 34.29 14.52 35.53 14.52C37.39 14.52 38.50 13.27 38.50 10.81C38.50 8.34 37.39 7.10 35.53 7.10C34.29 7.10 33.53 7.76 33.24 8.46L33.19 8.46L33.19 7.18L31.71 7.32L31.71 7.50L32.90 7.57L32.90 16.90L31.71 16.90ZM35.53 14.27C34.30 14.27 33.19 13.51 33.19 12.38L33.19 9.24C33.19 8.11 34.30 7.35 35.53 7.35C37.23 7.35 38.18 8.55 38.18 10.47L38.18 11.14C38.18 13.06 37.23 14.27 35.53 14.27ZM43.25 14.52C44.65 14.52 45.46 13.64 45.85 12.89L45.65 12.78C45.23 13.54 44.48 14.27 43.25 14.27C41.66 14.27 40.57 13.20 40.57 11.07L40.57 10.50L46.00 10.50L46.00 10.37C46.00 8.46 44.94 7.10 43.27 7.10C41.47 7.10 40.25 8.41 40.25 10.81C40.25 13.36 41.50 14.52 43.25 14.52ZM40.57 10.28C40.61 8.51 41.69 7.35 43.27 7.35C44.77 7.35 45.67 8.58 45.68 10.28ZM50.79 14.52C52.04 14.52 52.79 13.86 53.09 13.16L53.13 13.16L53.13 14.43L54.61 14.29L54.61 14.11L53.42 14.04L53.42 3.65L51.94 3.79L51.94 3.98L53.13 4.05L53.13 8.46L53.09 8.46C52.79 7.76 52.04 7.10 50.79 7.10C48.93 7.10 47.82 8.34 47.82 10.81C47.82 13.27 48.93 14.52 50.79 14.52ZM50.79 14.27C49.10 14.27 48.15 13.06 48.15 11.14L48.15 10.47C48.15 8.55 49.10 7.35 50.79 7.35C52.02 7.35 53.13 8.11 53.13 9.24L53.13 12.38C53.13 13.51 52.02 14.27 50.79 14.27ZM56.94 4.98C57.18 4.98 57.30 4.83 57.30 4.63L57.30 4.61C57.30 4.41 57.18 4.26 56.94 4.26C56.70 4.26 56.57 4.41 56.57 4.61L56.57 4.63C56.57 4.83 56.70 4.98 56.94 4.98ZM55.61 14.35L58.28 14.35L58.28 14.10L57.09 14.10L57.09 7.18L55.61 7.32L55.61 7.50L56.80 7.57L56.80 14.10L55.61 14.10ZM61.85 14.52C63.24 14.52 63.91 13.75 64.15 13.09L64.19 13.09L64.19 13.86C64.19 14.32 64.34 14.45 64.78 14.45C65.02 14.45 65.44 14.39 65.60 14.32L65.60 14.15L64.47 14.15L64.47 9.27C64.47 7.85 63.55 7.10 62.12 7.10C60.86 7.10 59.88 7.64 59.88 8.19C59.88 8.41 60.02 8.55 60.24 8.55C60.47 8.55 60.61 8.41 60.61 8.19C60.61 8.01 60.48 7.87 60.30 7.80L60.30 7.77C60.59 7.53 61.15 7.35 62.12 7.35C63.43 7.35 64.18 8.01 64.18 9.31L64.18 10.60L62.62 10.60C60.45 10.60 59.60 11.27 59.60 12.63C59.60 13.76 60.44 14.52 61.85 14.52ZM61.85 14.27C60.61 14.27 59.92 13.62 59.92 12.78L59.92 12.45C59.92 11.41 60.61 10.82 62.71 10.82L64.18 10.82L64.18 12.33C64.18 13.40 63.18 14.27 61.85 14.27Z"></path></g><!----><!----></svg>